<svg xmlns="http://www.w3.org/2000/svg" xmlns:xlink="http://www.w3.org/1999/xlink" viewBox="0 0 250 250"><defs><style>.cls-1{fill:none;}.cls-2{fill:#eaeef8;}.cls-3{fill:url(#linear-gradient);}.cls-4{fill:#d6ddea;}.cls-5{fill:#cfd8e2;}.cls-6{fill:url(#linear-gradient-2);}.cls-7{fill:#e3e9f1;}.cls-8{fill:#fff;}.cls-9{fill:#999fb0;}</style><linearGradient id="linear-gradient" x1="103.27" y1="205.92" x2="103.27" y2="40.06" gradientTransform="matrix(1, 0, 0, -1, 0, 250.72)" gradientUnits="userSpaceOnUse"><stop offset="0" stop-color="#fff"/><stop offset="1" stop-color="#edf0f5"/></linearGradient><linearGradient id="linear-gradient-2" x1="156.6" y1="205.35" x2="156.6" y2="38.13" xlink:href="#linear-gradient"/></defs><g id="Layer_2" data-name="Layer 2"><g id="Layer_1-2" data-name="Layer 1"><rect class="cls-1" width="250" height="250"/><path class="cls-2" d="M121,216.35A92.38,92.38,0,1,0,28.81,124,92.23,92.23,0,0,0,121,216.35Z"/><path class="cls-3" d="M147.73,74.88l27.82,100a6.34,6.34,0,0,1-4.54,7.82l-98,26a6.35,6.35,0,0,1-7.82-4.55L31,75.06a6.33,6.33,0,0,1,4.55-7.81l70.91-18.73Z"/><path class="cls-4" d="M146.28,138.16l-52.92,14-5.82,1.46L69.9,158.35a1.49,1.49,0,0,0-.91,2,1.59,1.59,0,0,0,1.82,1.27l17.64-4.73,5.82-1.45,52.91-14a1.48,1.48,0,0,0,.91-2A1.58,1.58,0,0,0,146.28,138.16Z"/><path class="cls-4" d="M142.82,125.8l-19.64,5.09-6.73,1.82L66.81,146a1.48,1.48,0,0,0-.91,2,1.57,1.57,0,0,0,1.82,1.27L117.54,136l6.73-1.82,19.64-5.09a1.48,1.48,0,0,0,.91-2C144.46,126.34,143.55,125.62,142.82,125.8Z"/><path class="cls-4" d="M139.91,113.25l-5.09,1.27-5.09,1.28L63.36,133.43a1.48,1.48,0,0,0-.91,2,1.59,1.59,0,0,0,1.82,1.28l66.37-17.64,5.63-1.46,4.55-1.27a1.48,1.48,0,0,0,.91-2A1.51,1.51,0,0,0,139.91,113.25Z"/><path class="cls-5" d="M109.18,177.62l-3.64.91a1.59,1.59,0,0,1-1.82-1.27,1.63,1.63,0,0,1,.91-2l3.64-.91a1.58,1.58,0,0,1,1.82,1.27C110.27,176.71,109.91,177.44,109.18,177.62Z"/><path class="cls-4" d="M98.09,180.53,77.18,186a1.59,1.59,0,0,1-1.82-1.28,1.63,1.63,0,0,1,.91-2l20.91-5.45A1.58,1.58,0,0,1,99,178.53,1.38,1.38,0,0,1,98.09,180.53Z"/><path class="cls-4" d="M137.37,100.7l-16.55,4.37-4,1.09L60.27,121.07a1.47,1.47,0,0,0-.91,2,1.58,1.58,0,0,0,1.81,1.27l56.37-14.73,4-1.09,16.36-4.36c.91-.18,1.27-1.09,1.09-2.18A1.45,1.45,0,0,0,137.37,100.7Z"/><path class="cls-4" d="M98.27,73.25,51.36,85.61a2.07,2.07,0,1,1-1.1-4L97.18,69.25a2.07,2.07,0,0,1,1.09,4Z"/><path class="cls-4" d="M72.45,92.16l-18,4.73a2.08,2.08,0,0,1-1.09-4l17.82-4.72a2.05,2.05,0,0,1,2.54,1.45A2.12,2.12,0,0,1,72.45,92.16Z"/><path class="cls-4" d="M106.45,48.52l7.28,27.64a7.5,7.5,0,0,0,9.09,5.09l24.91-6.37"/><path class="cls-6" d="M221.19,103.07,204.46,205.62a6.29,6.29,0,0,1-7.45,5.1L97.36,193.26a6.55,6.55,0,0,1-5.27-7.46L115.18,54.33a6.3,6.3,0,0,1,7.46-5.09L195,62Z"/><path class="cls-5" d="M193.37,160l-53.82-9.45-5.82-1.09-18-3.09a1.46,1.46,0,0,0-1.64,1.45,1.72,1.72,0,0,0,1.09,2l18,3.09L139,154l53.83,9.46a1.47,1.47,0,0,0,1.63-1.46A1.57,1.57,0,0,0,193.37,160Z"/><path class="cls-5" d="M195.55,147.44l-20-3.46-6.73-1.27-50.73-8.91a1.47,1.47,0,0,0-1.64,1.45,1.73,1.73,0,0,0,1.09,2l50.74,8.91,6.73,1.28,20,3.45a1.46,1.46,0,0,0,1.63-1.45A1.71,1.71,0,0,0,195.55,147.44Z"/><path class="cls-4" d="M198.1,134.71l-5.27-.91-5.28-.91-67.64-11.82a1.48,1.48,0,0,0-1.64,1.45,1.73,1.73,0,0,0,1.09,2L187,136.34l5.82,1.1,4.54.72a1.47,1.47,0,0,0,1.64-1.45A1.38,1.38,0,0,0,198.1,134.71Z"/><path class="cls-5" d="M143.18,180.35l-3.63-.55a1.71,1.71,0,0,1-1.09-2c.18-.91.91-1.63,1.63-1.45l3.64.54a1.73,1.73,0,0,1,1.09,2A1.56,1.56,0,0,1,143.18,180.35Z"/><path class="cls-7" d="M132.09,178.35l-21.27-3.64a1.71,1.71,0,0,1-1.09-2c.18-.91.9-1.63,1.63-1.45l21.28,3.63a1.73,1.73,0,0,1,1.09,2C133.55,178,132.82,178.53,132.09,178.35Z"/><path class="cls-4" d="M201,122.34l-16.91-2.91-4.18-.72-57.65-10.19a1.47,1.47,0,0,0-1.63,1.46,1.71,1.71,0,0,0,1.09,2l57.64,10.18,4.18.73,16.73,2.91a1.63,1.63,0,0,0,1.82-1.46A1.72,1.72,0,0,0,201,122.34Z"/><path class="cls-4" d="M177.19,81.07,129.36,72.7a2,2,0,0,1,.73-4l47.83,8.36a2.06,2.06,0,0,1,1.63,2.37A2.21,2.21,0,0,1,177.19,81.07Z"/><path class="cls-4" d="M145.73,87.25,127.36,84a2,2,0,0,1,.73-4l18.19,3.28a2,2,0,0,1,1.63,2.36A2,2,0,0,1,145.73,87.25Z"/><path class="cls-4" d="M194.83,62l-4.91,28.19a7.52,7.52,0,0,0,6.18,8.54l25.09,4.37"/><path class="cls-8" d="M152.64,196a40.55,40.55,0,1,0-40.55-40.55A40.56,40.56,0,0,0,152.64,196Z"/><path class="cls-9" d="M148.82,162a9.64,9.64,0,0,1-.18-2.36c0-3.09,1.27-5.82,4.55-8.18l2.72-2a5.46,5.46,0,0,0,2.37-4.55c0-2.55-1.82-5.09-5.64-5.09-4,0-5.82,3.27-5.82,6.36A5.65,5.65,0,0,0,147,148l-7.27-.18a10.89,10.89,0,0,1-.36-2.55c0-6.18,4.54-12,13.09-12,8.73,0,13.45,5.64,13.45,11.28,0,4.54-2.36,7.63-5.63,10l-2.37,1.63a6.64,6.64,0,0,0-3.09,5.46V162Zm3.09,3.64a4.55,4.55,0,1,1-4.54,4.55A4.74,4.74,0,0,1,151.91,165.62Z"/><path class="cls-9" d="M213.34,218.4a5.8,5.8,0,0,1-4.41-2.05l-26.29-26.29-.94.63a47.76,47.76,0,0,1-28.49,9.6A48.85,48.85,0,0,1,120,186.92a46.76,46.76,0,0,1-14.64-34.32,47.77,47.77,0,0,1,47.69-47.69,47.74,47.74,0,0,1,39.2,74.92l-.63.95,26.44,26.44a6.1,6.1,0,0,1,1.57,6.77C218.37,216.51,215.86,218.4,213.34,218.4ZM153.05,118a34.62,34.62,0,0,0-34.62,34.62c0,21.72,17.78,34.79,35.1,34.79a34.63,34.63,0,0,0,30.85-49.74A34.79,34.79,0,0,0,153.05,118Z"/></g></g></svg>