<?xml version="1.0" encoding="UTF-8"?>
<!DOCTYPE svg PUBLIC "-//W3C//DTD SVG 1.1//EN" "http://www.w3.org/Graphics/SVG/1.1/DTD/svg11.dtd">
<!-- Creator: CorelDRAW 2021.5 -->
<svg xmlns="http://www.w3.org/2000/svg" xml:space="preserve" width="246.278mm" height="204.901mm" version="1.1" style="shape-rendering:geometricPrecision; text-rendering:geometricPrecision; image-rendering:optimizeQuality; fill-rule:evenodd; clip-rule:evenodd"
viewBox="0 0 24627.52 20489.91"
 xmlns:xlink="http://www.w3.org/1999/xlink"
 xmlns:xodm="http://www.corel.com/coreldraw/odm/2003">
 <defs>
  <style type="text/css">
   <![CDATA[
    .fil1 {fill:#FEFEFE}
    .fil0 {fill:#FEFEFE;fill-rule:nonzero}
   ]]>
  </style>
 </defs>
 <g id="Layer_x0020_1">
  <metadata id="CorelCorpID_0Corel-Layer"/>
  <g id="_2552042293072">
   <path class="fil0" d="M5759.38 19629.46l-332.29 0 0 -120.62 802.15 0 0 120.62 -332.65 0 0 849.55 -137.22 0 0 -849.55zm1525.73 606.79l-515.38 0 -106.56 242.76 -142.91 0 439.56 -970.17 136.93 0 440.58 970.17 -145.3 0 -106.91 -242.76zm-48.34 -110.74l-209.21 -475.2 -209.22 475.2 418.43 0zm1438.58 -137.22l133.03 0 0 378.1c-47.98,39.9 -104.03,70.2 -167.59,91.77 -63.84,21.14 -130.5,31.74 -199.62,31.74 -98.11,0 -186.27,-21.5 -264.62,-64.57 -78.63,-42.71 -140.39,-101.93 -185.19,-177.04 -44.8,-75.53 -67.02,-160.22 -67.02,-254.37 0,-94.22 22.22,-179.2 67.02,-255.1 44.8,-75.82 106.85,-134.76 185.91,-177.47 79,-42.27 167.95,-63.48 266.72,-63.48 77.55,0 148.18,12.77 211.3,38.09 63.13,25.39 117.09,62.47 161.24,111.53l-85.78 85.71c-77.55,-74.82 -171.41,-112.19 -281.14,-112.19 -74.09,0 -140.39,15.88 -198.97,47.98 -58.58,31.74 -104.75,76.18 -137.93,133.03 -33.19,56.78 -49.78,120.62 -49.78,191.9 0,70.19 16.59,133.68 49.78,190.46 33.18,56.77 79.35,101.28 137.93,133.68 58.58,32.46 124.52,48.33 197.53,48.33 86.79,0 162.32,-20.41 227.18,-62.04l0 -316.06zm733.1 -479.45l138.66 0 0 849.47 525.26 0 0 120.7 -663.92 0 0 -970.17zm1158.82 0l138.37 0 0 970.17 -138.37 0 0 -970.17zm1599.17 0l0 970.17 -113.63 0 -582.03 -723.58 0 723.58 -138.66 0 0 -970.17 113.62 0 582.04 723.22 0 -723.22 138.66 0zm1330.3 849.47l0 120.7 -703.74 0 0 -970.17 684.33 0 0 120.62 -545.67 0 0 297.81 486.08 0 0 117.81 -486.08 0 0 313.24 565.08 0zm1767.04 -849.47l0 970.17 -138.66 0 0 -432.57 -557 0 0 432.57 -138.66 0 0 -970.17 138.66 0 0 416.99 557 0 0 -416.99 138.66 0zm1330.3 849.47l0 120.7 -703.74 0 0 -970.17 684.34 0 0 120.62 -546.04 0 0 297.81 486.45 0 0 117.81 -486.45 0 0 313.24 565.44 0zm1208.67 120.7l-209.21 -298.1c-26.12,2.1 -46.24,2.82 -61.03,2.82l-239.88 0 0 295.28 -138.3 0 0 -970.17 378.18 0c125.6,0 224.36,30.01 296.29,90.32 72.36,59.96 108.28,142.49 108.28,247.96 0,74.81 -18.61,138.37 -55.33,191.25 -37.01,52.59 -89.6,90.61 -158.07,114.99l230.07 325.66 -151 0zm-274.5 -413.16c87.87,0 154.89,-19.05 201.06,-56.78 45.88,-37.73 69.19,-92.05 69.19,-161.96 0,-70.48 -23.31,-124.16 -69.19,-161.53 -46.17,-37.37 -113.19,-56.13 -201.06,-56.13l-235.62 0 0 436.4 235.62 0zm1672.54 292.46l0 120.7 -703.82 0 0 -970.17 684.41 0 0 120.62 -545.75 0 0 297.81 486.45 0 0 117.81 -486.45 0 0 313.24 565.16 0z"/>
   <path class="fil0" d="M1143.67 18857.26c-216.21,0 -411.36,-47.25 -585.57,-141.83 -174.3,-94.87 -310.8,-225.74 -409.63,-392.96 -98.76,-167.23 -148.47,-355.6 -148.47,-565.52 0,-209.86 50.07,-398.59 149.91,-565.45 99.85,-167.22 237.06,-298.09 411.29,-393.03 174.29,-94.87 369.37,-142.19 585.28,-142.19 175.31,0 335.46,30.73 480.1,91.76 144.72,61.04 267.07,149.92 366.92,265.99l-256.83 241.61c-154.89,-167.16 -345.35,-250.77 -571.86,-250.77 -146.74,0 -277.97,32.1 -394.41,96.31 -116.08,64.21 -206.69,153.45 -271.98,267.36 -65.29,114.35 -97.68,243.77 -97.68,388.42 0,144.64 32.39,274.14 97.68,388.05 65.29,114.35 155.9,203.59 271.98,267.8 116.44,64.2 247.67,95.95 394.41,95.95 226.52,0 416.98,-84.34 571.86,-253.66l256.83 244.86c-99.85,116 -222.63,204.59 -368.65,265.91 -145.73,61.11 -306.25,91.41 -481.18,91.41zm2742.11 0c-218.37,0 -414.89,-47.25 -590.19,-141.83 -175.3,-94.87 -312.88,-226.46 -412.73,-394.41 -99.84,-168.23 -149.62,-356.31 -149.62,-564.07 0,-208.13 49.78,-395.78 149.62,-564.08 99.85,-168.23 237.43,-299.46 412.73,-394.4 175.31,-94.87 371.83,-142.19 590.19,-142.19 218.02,0 414.53,47.32 589.83,142.19 175.31,94.94 312.96,225.81 412.73,393.03 99.84,166.87 149.98,355.6 149.98,565.45 0,209.93 -50.14,398.3 -149.98,565.52 -99.77,167.22 -237.42,298.09 -412.73,392.96 -175.31,94.58 -371.82,141.83 -589.83,141.83zm0 -348.52c142.48,0 270.97,-31.75 385.24,-95.95 113.92,-64.21 203.52,-154.17 268.81,-269.17 65.29,-114.99 97.75,-244.13 97.75,-386.68 0,-142.84 -32.46,-271.62 -97.75,-386.61 -65.29,-115.36 -154.89,-204.96 -268.81,-269.17 -114.27,-64.21 -242.76,-96.31 -385.24,-96.31 -142.84,0 -271.25,32.1 -385.24,96.31 -114.27,64.21 -203.88,153.81 -269.16,269.17 -65.29,114.99 -97.69,243.77 -97.69,386.61 0,142.55 32.4,271.69 97.69,386.68 65.28,115 154.89,204.96 269.16,269.17 113.99,64.2 242.4,95.95 385.24,95.95zm4096.44 318.22l-3.17 -1418.52 -703.1 1173.68 -177.47 0 -703.02 -1155.36 0 1400.2 -378.89 0 0 -2139.95 327.02 0 849.76 1418.52 834.68 -1418.52 327.1 0 3.1 2139.95 -376.01 0zm3475.87 0l-3.18 -1418.52 -703.09 1173.68 -177.4 0 -703.09 -1155.36 0 1400.2 -379.25 0 0 -2139.95 327.38 0 849.83 1418.52 834.68 -1418.52 326.95 0 2.89 2139.95 -375.72 0zm2430.24 30.3c-295.64,0 -525.98,-82.89 -691.05,-249.04 -165.13,-166.14 -247.66,-403.92 -247.66,-713.7l0 -1207.51 397.58 0 0 1192c0,419.8 181.29,629.73 543.94,629.73 360.93,0 541.14,-209.94 541.14,-629.73l0 -1192 391.3 0 0 1207.51c0,309.79 -81.88,547.56 -245.94,713.7 -164.05,166.15 -394.04,249.04 -689.31,249.04zm3949.7 -2170.25l0 2139.95 -327.09 0 -1180.03 -1449.26 0 1449.26 -394.41 0 0 -2139.95 327.03 0 1180.02 1448.82 0 -1448.82 394.48 0zm1130.97 0l397.58 0 0 2139.95 -397.58 0 0 -2139.95zm1965.65 336.19l-709.08 0 0 -336.19 1815.74 0 0 336.19 -709.08 0 0 1803.76 -397.58 0 0 -1803.76zm2855.38 1048.43l0 755.33 -397.58 0 0 -748.98 -840.67 -1390.96 425.07 0 626.55 1042.45 632.9 -1042.45 391.23 0 -837.5 1384.61z"/>
   <path class="fil1" d="M9536.88 5894.95c457.88,0 829.34,371.83 829.34,829.71 0,458.24 -371.46,829.41 -829.34,829.41 -457.88,0 -829.42,-371.17 -829.42,-829.41 0,-457.88 371.54,-829.71 829.42,-829.71z"/>
   <path class="fil1" d="M12313.9 5894.95c457.88,0 829.34,371.83 829.34,829.71 0,458.24 -371.46,829.41 -829.34,829.41 -458.24,0 -829.35,-371.17 -829.35,-829.41 0,-457.88 371.11,-829.71 829.35,-829.71z"/>
   <path class="fil1" d="M15090.57 5894.95c458.24,0 829.41,371.83 829.41,829.71 0,458.24 -371.17,829.41 -829.41,829.41 -457.88,0 -829.34,-371.17 -829.34,-829.41 0,-457.88 371.46,-829.71 829.34,-829.71z"/>
   <path class="fil1" d="M9194.34 12393.05c392.24,318.23 1055.8,731.3 1933.55,933.45l1186.02 2158.63 1217.76 -2211.22c712.97,-187.29 1488.71,-538.32 2314.23,-1122.53 71.57,203.22 188.37,393.68 350.69,555.99 579.94,579.95 1520.02,579.95 2100.05,0 579.95,-579.95 579.95,-1520.1 0,-2100.13 -211.38,-211.66 -471.01,-345.7 -743.71,-403.2 357.4,-1303.83 276.6,-1954.33 -100.13,-3756.65l0 1.37 0.36 0.72 2.45 59.59 0.36 4.62 0 2.09c55.7,1386.06 -444.83,2789.8 -1502.85,3848.13 -21.86,21.86 -43.72,42.63 -65.94,64.13 -1693.32,1875.04 -4447.04,2915.04 -6692.83,1965z"/>
   <path class="fil1" d="M15433.46 1056.32c-935.17,-758.5 -3405.67,-2053.88 -6651.56,241.32 -71.56,-202.87 -188.36,-393.4 -350.68,-556 -579.95,-579.94 -1520.39,-579.94 -2099.98,0 -580.02,579.95 -580.02,1520.46 0,2100.42 211.3,211.3 470.93,345.71 743.27,402.84 -357.03,1303.9 -276.23,1954.76 100.5,3756.72l-0.29 -1.44 0 -0.36 -2.89 -59.59 0 -7.07c-55.69,-1385.7 444.55,-2789.73 1502.86,-3847.69 21.5,-21.86 43.72,-43 65.94,-64.57 1693.31,-1874.61 4447.11,-2914.97 6692.82,-1964.57z"/>
   <path class="fil1" d="M17982.31 9844.21c758.42,-935.18 2053.81,-3405.6 -241.32,-6651.85 202.79,-71.27 393.32,-188.07 555.63,-350.32 579.95,-579.95 579.95,-1520.46 0,-2100.06 -579.65,-580.3 -1520.1,-580.3 -2100.05,-0.36 -211.67,211.67 -345.78,471.3 -403.28,743.64 -1303.83,-357.03 -1954.4,-276.23 -3756.65,100.49l1.37 -0.28 0.73 0 59.59 -2.82 6.7 0c1386.06,-55.76 2790.09,444.47 3848.06,1502.79 21.86,21.5 43.07,43.72 64.2,65.57 1874.97,1693.39 2915.33,4447.48 1965.01,6693.19z"/>
   <path class="fil1" d="M6645.5 3604.73c-758.43,935.18 -2053.81,3406.03 241.32,6651.92 -202.8,71.57 -393.33,188.36 -555.56,350.61 -580.02,580.02 -580.02,1520.17 0,2100.13 579.58,579.95 1520.02,579.95 2099.98,0 211.66,-211.67 345.78,-471.01 402.91,-743.64 1304.19,356.97 1954.76,276.24 3756.72,-100.2l-1.8 0 -59.59 2.81 -4.62 0.36 -2.09 0c-1386.06,55.77 -2790.09,-444.9 -3848.05,-1502.78 -21.86,-21.93 -43.07,-43.79 -64.21,-66.01 -1874.97,-1693.32 -2915.33,-4447.05 -1965,-6693.19z"/>
  </g>
 </g>
</svg>
